<svg width="15" height="15" viewBox="0 0 15 15" fill="none" xmlns="http://www.w3.org/2000/svg">
<path d="M11.5 0.5L11.75 1.25H12.5L11.9 1.75L12.1 2.5L11.5 2.05L10.9 2.5L11.1 1.75L10.5 1.25H11.25L11.5 0.5Z" fill="white"/>
<path d="M13.5 3.5L13.75 4.25H14.5L13.9 4.75L14.1 5.5L13.5 5.05L12.9 5.5L13.1 4.75L12.5 4.25H13.25L13.5 3.5Z" fill="white"/>
<path d="M9.5 3.5L9.75 4.25H10.5L9.9 4.75L10.1 5.5L9.5 5.05L8.9 5.5L9.1 4.75L8.5 4.25H9.25L9.5 3.5Z" fill="white"/>
<path d="M11.5 6.5L11.75 7.25H12.5L11.9 7.75L12.1 8.5L11.5 8.05L10.9 8.5L11.1 7.75L10.5 7.25H11.25L11.5 6.5Z" fill="white"/>
<path d="M7.5 6.5L7.75 7.25H8.5L7.9 7.75L8.1 8.5L7.5 8.05L6.9 8.5L7.1 7.75L6.5 7.25H7.25L7.5 6.5Z" fill="white"/>
<path d="M3.5 6.5L3.75 7.25H4.5L3.9 7.75L4.1 8.5L3.5 8.05L2.9 8.5L3.1 7.75L2.5 7.25H3.25L3.5 6.5Z" fill="white"/>
<path d="M13.5 9.5L13.75 10.25H14.5L13.9 10.75L14.1 11.5L13.5 11.05L12.9 11.5L13.1 10.75L12.5 10.25H13.25L13.5 9.5Z" fill="white"/>
<path d="M9.5 9.5L9.75 10.25H10.5L9.9 10.75L10.1 11.5L9.5 11.05L8.9 11.5L9.1 10.75L8.5 10.25H9.25L9.5 9.5Z" fill="white"/>
<path d="M5.5 9.5L5.75 10.25H6.5L5.9 10.75L6.1 11.5L5.5 11.05L4.9 11.5L5.1 10.75L4.5 10.25H5.25L5.5 9.5Z" fill="white"/>
<path d="M11.5 12.5L11.75 13.25H12.5L11.9 13.75L12.1 14.5L11.5 14.05L10.9 14.5L11.1 13.75L10.5 13.25H11.25L11.5 12.5Z" fill="white"/>
<path d="M7.5 12.5L7.75 13.25H8.5L7.9 13.75L8.1 14.5L7.5 14.05L6.9 14.5L7.1 13.75L6.5 13.25H7.25L7.5 12.5Z" fill="white"/>
<path d="M3.5 12.5L3.75 13.25H4.5L3.9 13.75L4.1 14.5L3.5 14.05L2.9 14.5L3.1 13.75L2.5 13.25H3.25L3.5 12.5Z" fill="white"/>
<path d="M4.90002 5.5L5.50002 5.05L6.10002 5.5L5.85002 4.75L6.45002 4.25H5.70002L5.50002 3.5L5.25002 4.25H4.55002L5.15002 4.7L4.90002 5.5Z" fill="white"/>
<path d="M0.900012 11.5L1.50001 11.05L2.10001 11.5L1.85001 10.75L2.45001 10.25H1.75001L1.50001 9.5L1.25001 10.25H0.750012C0.750012 10.3 0.700012 10.35 0.700012 10.4L1.10001 10.7L0.900012 11.5Z" fill="white"/>
</svg>
